<mxfile host="65bd71144e">
    <diagram id="rzwwqnnFvJ9IIZ25HkDR" name="Concept">
        <mxGraphModel dx="2911" dy="2607" grid="0" gridSize="10" guides="1" tooltips="1" connect="1" arrows="1" fold="1" page="1" pageScale="1" pageWidth="1100" pageHeight="850" background="#ffffff" math="0" shadow="0">
            <root>
                <mxCell id="0"/>
                <mxCell id="1" parent="0"/>
                <mxCell id="66" value="&lt;font style=&quot;font-size: 16px&quot;&gt;&lt;b&gt;~Style 2~&lt;/b&gt;&lt;/font&gt;&lt;br&gt;-attribute-" style="rounded=1;whiteSpace=wrap;html=1;fillColor=#FFCE9F;strokeColor=#FF8000;strokeWidth=4;fontColor=#000000;" parent="1" vertex="1">
                    <mxGeometry x="-1350" y="-1230" width="120" height="60" as="geometry"/>
                </mxCell>
                <mxCell id="67" value="&lt;font style=&quot;font-size: 16px&quot;&gt;&lt;b&gt;~Style 3~&lt;/b&gt;&lt;/font&gt;&lt;br&gt;-reference-&lt;br&gt;&lt;b style=&quot;font-style: italic&quot;&gt;-attribute-&lt;/b&gt;" style="rounded=1;whiteSpace=wrap;html=1;fillColor=#b0e3e6;strokeColor=#0e8088;strokeWidth=4;fontColor=#000000;" parent="1" vertex="1">
                    <mxGeometry x="-1350" y="-1160" width="120" height="60" as="geometry"/>
                </mxCell>
                <mxCell id="68" value="&lt;span style=&quot;font-size: 16px&quot;&gt;&lt;b&gt;Style 1&lt;/b&gt;&lt;/span&gt;" style="rounded=1;whiteSpace=wrap;html=1;fillColor=#B9E0A5;strokeColor=#006600;strokeWidth=4;fontColor=#000000;" parent="1" vertex="1">
                    <mxGeometry x="-1350" y="-1300" width="120" height="60" as="geometry"/>
                </mxCell>
                <mxCell id="69" value="&lt;span style=&quot;font-size: 16px&quot;&gt;&lt;b&gt;Style 4&lt;/b&gt;&lt;/span&gt;" style="rounded=1;whiteSpace=wrap;html=1;fillColor=#fad9d5;strokeColor=#ae4132;strokeWidth=4;labelBackgroundColor=none;fontColor=#990000;" parent="1" vertex="1">
                    <mxGeometry x="-1350" y="-1090" width="120" height="60" as="geometry"/>
                </mxCell>
                <mxCell id="70" value="&lt;span style=&quot;font-size: 16px&quot;&gt;&lt;b&gt;Style 0&lt;/b&gt;&lt;/span&gt;" style="rounded=1;whiteSpace=wrap;html=1;fillColor=#E6E6E6;strokeColor=#999999;strokeWidth=4;fontColor=#000000;" parent="1" vertex="1">
                    <mxGeometry x="-1350" y="-1370" width="120" height="60" as="geometry"/>
                </mxCell>
                <mxCell id="92" value="Process: Datastore&lt;br&gt;OSCAL: De-emphasized" style="text;html=1;align=left;verticalAlign=middle;resizable=0;points=[];autosize=1;strokeColor=none;fillColor=none;fontColor=#000000;" parent="1" vertex="1">
                    <mxGeometry x="-1215" y="-1355" width="150" height="30" as="geometry"/>
                </mxCell>
                <mxCell id="94" value="Process: Informative&lt;br&gt;OSCAL: Model" style="text;html=1;align=left;verticalAlign=middle;resizable=0;points=[];autosize=1;strokeColor=none;fillColor=none;fontColor=#000000;" parent="1" vertex="1">
                    <mxGeometry x="-1215" y="-1285" width="120" height="30" as="geometry"/>
                </mxCell>
                <mxCell id="95" value="Process: Action/Event&lt;br&gt;OSCAL: Action (e.g., Transform, Import)" style="text;html=1;align=left;verticalAlign=middle;resizable=0;points=[];autosize=1;strokeColor=none;fillColor=none;fontColor=#000000;" parent="1" vertex="1">
                    <mxGeometry x="-1215" y="-1215" width="230" height="30" as="geometry"/>
                </mxCell>
                <mxCell id="96" value="Process: External Entity&lt;br&gt;OSCAL: Model Detail or External" style="text;html=1;align=left;verticalAlign=middle;resizable=0;points=[];autosize=1;strokeColor=none;fillColor=none;fontColor=#000000;" parent="1" vertex="1">
                    <mxGeometry x="-1215" y="-1145" width="190" height="30" as="geometry"/>
                </mxCell>
                <mxCell id="97" value="Process: Notification Event&lt;br&gt;OSCAL: Action with Output" style="text;html=1;align=left;verticalAlign=middle;resizable=0;points=[];autosize=1;strokeColor=none;fillColor=none;fontColor=#000000;" parent="1" vertex="1">
                    <mxGeometry x="-1215" y="-1075" width="160" height="30" as="geometry"/>
                </mxCell>
                <mxCell id="98" value="General Usage/Intention" style="text;html=1;align=center;verticalAlign=middle;resizable=0;points=[];autosize=1;strokeColor=none;fillColor=none;fontColor=#000000;fontStyle=1" parent="1" vertex="1">
                    <mxGeometry x="-1220" y="-1400" width="150" height="20" as="geometry"/>
                </mxCell>
                <mxCell id="HrsnjlXnYAHZ2svVYB9Z-110" style="edgeStyle=none;html=1;entryX=0.5;entryY=0;entryDx=0;entryDy=0;strokeColor=#000000;strokeWidth=4;" parent="1" source="HrsnjlXnYAHZ2svVYB9Z-98" target="HrsnjlXnYAHZ2svVYB9Z-100" edge="1">
                    <mxGeometry relative="1" as="geometry"/>
                </mxCell>
                <mxCell id="HrsnjlXnYAHZ2svVYB9Z-116" style="edgeStyle=none;shape=connector;rounded=1;html=1;entryX=0.5;entryY=0;entryDx=0;entryDy=0;labelBackgroundColor=default;strokeColor=#000000;strokeWidth=4;fontFamily=Helvetica;fontSize=11;fontColor=default;endArrow=classic;" parent="1" source="HrsnjlXnYAHZ2svVYB9Z-98" target="HrsnjlXnYAHZ2svVYB9Z-105" edge="1">
                    <mxGeometry relative="1" as="geometry"/>
                </mxCell>
                <mxCell id="HrsnjlXnYAHZ2svVYB9Z-98" value="&lt;span style=&quot;font-size: 30px;&quot;&gt;&lt;b style=&quot;font-size: 30px;&quot;&gt;CSP&lt;/b&gt;&lt;/span&gt;" style="rounded=1;whiteSpace=wrap;html=1;fillColor=#b0e3e6;strokeColor=#0e8088;strokeWidth=4;fontColor=#000000;fontSize=30;" parent="1" vertex="1">
                    <mxGeometry x="-1970" y="-1680" width="120" height="60" as="geometry"/>
                </mxCell>
                <mxCell id="HrsnjlXnYAHZ2svVYB9Z-112" style="edgeStyle=none;shape=connector;rounded=1;html=1;entryX=0.5;entryY=1;entryDx=0;entryDy=0;labelBackgroundColor=default;strokeColor=#000000;strokeWidth=4;fontFamily=Helvetica;fontSize=11;fontColor=default;endArrow=classic;" parent="1" source="HrsnjlXnYAHZ2svVYB9Z-99" target="HrsnjlXnYAHZ2svVYB9Z-106" edge="1">
                    <mxGeometry relative="1" as="geometry"/>
                </mxCell>
                <mxCell id="HrsnjlXnYAHZ2svVYB9Z-114" style="edgeStyle=none;shape=connector;rounded=1;html=1;entryX=0.558;entryY=1;entryDx=0;entryDy=0;entryPerimeter=0;labelBackgroundColor=default;strokeColor=#000000;strokeWidth=4;fontFamily=Helvetica;fontSize=11;fontColor=default;endArrow=classic;" parent="1" source="HrsnjlXnYAHZ2svVYB9Z-99" target="HrsnjlXnYAHZ2svVYB9Z-107" edge="1">
                    <mxGeometry relative="1" as="geometry"/>
                </mxCell>
                <mxCell id="HrsnjlXnYAHZ2svVYB9Z-99" value="&lt;span style=&quot;font-size: 30px;&quot;&gt;&lt;b style=&quot;font-size: 30px;&quot;&gt;CUSTOMER&lt;/b&gt;&lt;/span&gt;" style="rounded=1;whiteSpace=wrap;html=1;fillColor=#b0e3e6;strokeColor=#0e8088;strokeWidth=4;fontColor=#000000;fontSize=30;" parent="1" vertex="1">
                    <mxGeometry x="-2010" y="-1120" width="200" height="60" as="geometry"/>
                </mxCell>
                <mxCell id="HrsnjlXnYAHZ2svVYB9Z-111" style="edgeStyle=none;shape=connector;rounded=1;html=1;entryX=0.5;entryY=0;entryDx=0;entryDy=0;labelBackgroundColor=default;strokeColor=#000000;strokeWidth=4;fontFamily=Helvetica;fontSize=11;fontColor=default;endArrow=classic;" parent="1" source="HrsnjlXnYAHZ2svVYB9Z-100" target="HrsnjlXnYAHZ2svVYB9Z-103" edge="1">
                    <mxGeometry relative="1" as="geometry"/>
                </mxCell>
                <mxCell id="HrsnjlXnYAHZ2svVYB9Z-100" value="&lt;span style=&quot;font-size: 16px;&quot;&gt;&lt;b&gt;PROVIDE&lt;br&gt;&lt;/b&gt;&lt;/span&gt;- provided -&lt;span style=&quot;font-size: 16px;&quot;&gt;&lt;b&gt;&lt;br&gt;&lt;/b&gt;&lt;/span&gt;" style="rounded=1;whiteSpace=wrap;html=1;fillColor=#FFCE9F;strokeColor=#FF8000;strokeWidth=4;fontColor=#000000;" parent="1" vertex="1">
                    <mxGeometry x="-2130" y="-1530" width="120" height="60" as="geometry"/>
                </mxCell>
                <mxCell id="HrsnjlXnYAHZ2svVYB9Z-118" style="edgeStyle=none;shape=connector;rounded=1;html=1;entryX=0;entryY=0.5;entryDx=0;entryDy=0;labelBackgroundColor=default;strokeColor=#000000;strokeWidth=4;fontFamily=Helvetica;fontSize=11;fontColor=default;endArrow=classic;" parent="1" source="HrsnjlXnYAHZ2svVYB9Z-103" target="HrsnjlXnYAHZ2svVYB9Z-104" edge="1">
                    <mxGeometry relative="1" as="geometry"/>
                </mxCell>
                <mxCell id="HrsnjlXnYAHZ2svVYB9Z-119" value="HAS [UUID]" style="edgeLabel;html=1;align=center;verticalAlign=middle;resizable=0;points=[];fontSize=11;fontFamily=Helvetica;fontColor=default;" parent="HrsnjlXnYAHZ2svVYB9Z-118" vertex="1" connectable="0">
                    <mxGeometry x="-0.8233" y="2" relative="1" as="geometry">
                        <mxPoint x="65" as="offset"/>
                    </mxGeometry>
                </mxCell>
                <mxCell id="HrsnjlXnYAHZ2svVYB9Z-103" value="&lt;span style=&quot;font-size: 16px&quot;&gt;&lt;b&gt;CAPABILITY&lt;/b&gt;&lt;/span&gt;" style="rounded=1;whiteSpace=wrap;html=1;fillColor=#B9E0A5;strokeColor=#006600;strokeWidth=4;labelBackgroundColor=none;fontColor=#000000;" parent="1" vertex="1">
                    <mxGeometry x="-2130" y="-1420" width="120" height="60" as="geometry"/>
                </mxCell>
                <mxCell id="HrsnjlXnYAHZ2svVYB9Z-104" value="&lt;b style=&quot;font-size: 16px;&quot;&gt;RESPONSIBILITIES&lt;br&gt;&lt;/b&gt;- responsibility -" style="rounded=1;whiteSpace=wrap;html=1;fillColor=#B9E0A5;strokeColor=#006600;strokeWidth=4;labelBackgroundColor=none;fontColor=#000000;" parent="1" vertex="1">
                    <mxGeometry x="-1840" y="-1422.5" width="200" height="60" as="geometry"/>
                </mxCell>
                <mxCell id="HrsnjlXnYAHZ2svVYB9Z-117" style="edgeStyle=none;shape=connector;rounded=1;html=1;entryX=0.5;entryY=0;entryDx=0;entryDy=0;labelBackgroundColor=default;strokeColor=#000000;strokeWidth=4;fontFamily=Helvetica;fontSize=11;fontColor=default;endArrow=classic;" parent="1" source="HrsnjlXnYAHZ2svVYB9Z-105" target="HrsnjlXnYAHZ2svVYB9Z-104" edge="1">
                    <mxGeometry relative="1" as="geometry"/>
                </mxCell>
                <mxCell id="HrsnjlXnYAHZ2svVYB9Z-105" value="&lt;span style=&quot;font-size: 16px;&quot;&gt;&lt;b&gt;DEFINE&lt;/b&gt;&lt;/span&gt;" style="rounded=1;whiteSpace=wrap;html=1;fillColor=#FFCE9F;strokeColor=#FF8000;strokeWidth=4;fontColor=#000000;" parent="1" vertex="1">
                    <mxGeometry x="-1800" y="-1532.5" width="120" height="60" as="geometry"/>
                </mxCell>
                <mxCell id="HrsnjlXnYAHZ2svVYB9Z-113" style="edgeStyle=none;shape=connector;rounded=1;html=1;entryX=0.5;entryY=1;entryDx=0;entryDy=0;labelBackgroundColor=default;strokeColor=#000000;strokeWidth=4;fontFamily=Helvetica;fontSize=11;fontColor=default;endArrow=classic;" parent="1" source="HrsnjlXnYAHZ2svVYB9Z-106" target="HrsnjlXnYAHZ2svVYB9Z-103" edge="1">
                    <mxGeometry relative="1" as="geometry"/>
                </mxCell>
                <mxCell id="HrsnjlXnYAHZ2svVYB9Z-106" value="&lt;span style=&quot;font-size: 16px;&quot;&gt;&lt;b&gt;INHERIT&lt;br&gt;&lt;/b&gt;&lt;/span&gt;- inherited -&lt;span style=&quot;font-size: 16px;&quot;&gt;&lt;b&gt;&lt;br&gt;&lt;/b&gt;&lt;/span&gt;" style="rounded=1;whiteSpace=wrap;html=1;fillColor=#FFCE9F;strokeColor=#FF8000;strokeWidth=4;fontColor=#000000;" parent="1" vertex="1">
                    <mxGeometry x="-2130" y="-1305" width="120" height="60" as="geometry"/>
                </mxCell>
                <mxCell id="HrsnjlXnYAHZ2svVYB9Z-115" style="edgeStyle=none;shape=connector;rounded=1;html=1;entryX=0.5;entryY=1;entryDx=0;entryDy=0;labelBackgroundColor=default;strokeColor=#000000;strokeWidth=4;fontFamily=Helvetica;fontSize=11;fontColor=default;endArrow=classic;" parent="1" source="HrsnjlXnYAHZ2svVYB9Z-107" target="HrsnjlXnYAHZ2svVYB9Z-104" edge="1">
                    <mxGeometry relative="1" as="geometry"/>
                </mxCell>
                <mxCell id="HrsnjlXnYAHZ2svVYB9Z-107" value="&lt;span style=&quot;font-size: 16px;&quot;&gt;&lt;b&gt;SATISFY&lt;br&gt;&lt;/b&gt;&lt;/span&gt;- satisfied -&lt;span style=&quot;font-size: 16px;&quot;&gt;&lt;b&gt;&lt;br&gt;&lt;/b&gt;&lt;/span&gt;" style="rounded=1;whiteSpace=wrap;html=1;fillColor=#FFCE9F;strokeColor=#FF8000;strokeWidth=4;fontColor=#000000;" parent="1" vertex="1">
                    <mxGeometry x="-1800" y="-1307.5" width="120" height="60" as="geometry"/>
                </mxCell>
                <mxCell id="HrsnjlXnYAHZ2svVYB9Z-121" value="" style="endArrow=none;html=1;rounded=1;labelBackgroundColor=default;strokeColor=#666666;strokeWidth=4;fontFamily=Helvetica;fontSize=16;fontColor=default;shape=connector;dashed=1;" parent="1" edge="1">
                    <mxGeometry width="50" height="50" relative="1" as="geometry">
                        <mxPoint x="-2190" y="-1326" as="sourcePoint"/>
                        <mxPoint x="-1580" y="-1326" as="targetPoint"/>
                    </mxGeometry>
                </mxCell>
            </root>
        </mxGraphModel>
    </diagram>
    <diagram id="eQJF7d4a6ZtykLDtPa8H" name="Model">
        <mxGraphModel dx="5408" dy="3648" grid="1" gridSize="10" guides="1" tooltips="1" connect="1" arrows="1" fold="1" page="1" pageScale="1" pageWidth="1100" pageHeight="850" background="#ffffff" math="0" shadow="0">
            <root>
                <mxCell id="0"/>
                <mxCell id="1" parent="0"/>
                <mxCell id="G8aZibp4w-kg5fSb7bOA-1" value="&lt;b&gt;&lt;font style=&quot;font-size: 20px&quot;&gt;System Security Plan:&lt;/font&gt;&lt;br&gt;&lt;/b&gt;&lt;b&gt;&lt;font style=&quot;font-size: 16px&quot;&gt;uuid: &quot;NISTDEMO-SSP1-...&quot;&lt;/font&gt;&lt;/b&gt;&lt;b&gt;&lt;span style=&quot;font-size: 16px&quot;&gt;&lt;br&gt;control-implementation:&lt;/span&gt;&lt;br&gt;&lt;/b&gt;" style="rounded=0;whiteSpace=wrap;html=1;fillColor=#C3FBFF;strokeColor=#0e8088;strokeWidth=4;fontColor=#000000;align=left;verticalAlign=top;spacing=0;opacity=50;dashed=1;spacingLeft=20;spacingTop=6;" parent="1" vertex="1">
                    <mxGeometry x="-2010" y="-1380" width="520" height="500" as="geometry"/>
                </mxCell>
                <mxCell id="G8aZibp4w-kg5fSb7bOA-2" value="&lt;span style=&quot;font-size: 16px&quot;&gt;&lt;b&gt;implemented-requirements:&lt;/b&gt;&lt;/span&gt;&lt;br&gt;&lt;b&gt;&lt;font color=&quot;#004c99&quot;&gt;&lt;span style=&quot;font-family: &amp;quot;menlo&amp;quot; , &amp;quot;monaco&amp;quot; , &amp;quot;courier new&amp;quot; , monospace&quot;&gt;&lt;font&gt;&lt;font style=&quot;font-size: 10px&quot;&gt;&lt;br&gt;&lt;/font&gt;&lt;/font&gt;&lt;/span&gt;&lt;/font&gt;&lt;/b&gt;&lt;b style=&quot;font-size: 17px&quot;&gt;&lt;font color=&quot;#004c99&quot; style=&quot;font-size: 17px&quot;&gt;&lt;span style=&quot;font-family: &amp;quot;menlo&amp;quot; , &amp;quot;monaco&amp;quot; , &amp;quot;courier new&amp;quot; , monospace&quot;&gt;&lt;font style=&quot;font-size: 17px&quot;&gt;&amp;nbsp; &amp;nbsp;control-id: ac-1&lt;/font&gt;&lt;/span&gt;&lt;/font&gt;&lt;/b&gt;&lt;b style=&quot;font-size: 17px&quot;&gt;&lt;font color=&quot;#004c99&quot; style=&quot;font-size: 17px&quot;&gt;&lt;span style=&quot;font-family: &amp;quot;menlo&amp;quot; , &amp;quot;monaco&amp;quot; , &amp;quot;courier new&amp;quot; , monospace&quot;&gt;&lt;font style=&quot;font-size: 17px&quot;&gt;&amp;nbsp;&lt;/font&gt;&lt;/span&gt;&lt;br&gt;&lt;br&gt;&lt;/font&gt;&lt;/b&gt;" style="rounded=0;whiteSpace=wrap;html=1;fillColor=#b0e3e6;strokeColor=#0E8088;strokeWidth=4;fontColor=#000000;align=left;verticalAlign=top;spacing=4;spacingLeft=16;" parent="1" vertex="1">
                    <mxGeometry x="-1990" y="-1300" width="480" height="400" as="geometry"/>
                </mxCell>
                <mxCell id="G8aZibp4w-kg5fSb7bOA-3" value="&lt;div style=&quot;line-height: 18px ; font-size: 14px&quot;&gt;&lt;span style=&quot;background-color: transparent ; font-size: 14px&quot;&gt;&lt;font style=&quot;font-size: 14px&quot;&gt;- component-uuid: BBBB-1&lt;/font&gt;&lt;/span&gt;&lt;/div&gt;&lt;div style=&quot;line-height: 18px ; font-size: 14px&quot;&gt;&lt;span style=&quot;background-color: transparent ; font-size: 14px&quot;&gt;&lt;font style=&quot;font-size: 14px&quot;&gt;- description: Storage array is encrypted with...&lt;/font&gt;&lt;/span&gt;&lt;br style=&quot;font-size: 14px&quot;&gt;&lt;/div&gt;" style="rounded=0;whiteSpace=wrap;html=1;fillColor=#FFFFFF;strokeColor=none;strokeWidth=2;fontColor=#000000;align=left;verticalAlign=top;spacing=0;fontSize=14;labelBackgroundColor=none;opacity=60;spacingLeft=5;" parent="1" vertex="1">
                    <mxGeometry x="-1935" y="-1200" width="400" height="50" as="geometry"/>
                </mxCell>
                <mxCell id="G8aZibp4w-kg5fSb7bOA-4" value="&lt;font style=&quot;font-size: 14px&quot;&gt;&lt;b style=&quot;background-color: transparent ; font-size: 14px&quot;&gt;- provided-uuid: CCCC-1&lt;br style=&quot;font-size: 14px&quot;&gt;&lt;/b&gt;&lt;span style=&quot;color: rgb(36 , 41 , 47) ; background-color: transparent ; font-size: 14px&quot;&gt;- description: Encryption is provided by the storage array.&lt;/span&gt;&lt;b style=&quot;background-color: transparent ; font-size: 14px&quot;&gt;&lt;br style=&quot;font-size: 14px&quot;&gt;&lt;/b&gt;&lt;/font&gt;&lt;div style=&quot;line-height: 18px ; font-size: 14px&quot;&gt;&lt;br style=&quot;font-size: 14px&quot;&gt;&lt;/div&gt;" style="rounded=0;whiteSpace=wrap;html=1;fillColor=#FFFFFF;strokeColor=none;strokeWidth=2;fontColor=#000000;align=left;verticalAlign=top;spacing=0;fontSize=14;labelBackgroundColor=none;opacity=60;spacingLeft=5;spacingTop=0;" parent="1" vertex="1">
                    <mxGeometry x="-1935" y="-1110" width="400" height="60" as="geometry"/>
                </mxCell>
                <mxCell id="G8aZibp4w-kg5fSb7bOA-5" value="&lt;span style=&quot;color: rgb(0 , 0 , 0) ; font-family: &amp;quot;helvetica&amp;quot; ; font-size: 16px ; font-style: normal ; letter-spacing: normal ; text-align: left ; text-indent: 0px ; text-transform: none ; word-spacing: 0px ; background-color: transparent&quot;&gt;by-component:shared:responsibilities&lt;/span&gt;" style="text;whiteSpace=wrap;html=1;fontSize=16;fontColor=#000000;fontStyle=1" parent="1" vertex="1">
                    <mxGeometry x="-1935" y="-1140" width="345" height="30" as="geometry"/>
                </mxCell>
                <mxCell id="G8aZibp4w-kg5fSb7bOA-6" value="&lt;span style=&quot;color: rgb(0, 0, 0); font-family: helvetica; font-size: 16px; font-style: normal; letter-spacing: normal; text-align: left; text-indent: 0px; text-transform: none; word-spacing: 0px; background-color: transparent;&quot;&gt;by-component&lt;/span&gt;&lt;span style=&quot;color: rgb(0, 0, 0); font-family: helvetica; font-size: 16px; font-style: normal; letter-spacing: normal; text-align: left; text-indent: 0px; text-transform: none; word-spacing: 0px; background-color: transparent;&quot;&gt;:shared:provided&lt;/span&gt;" style="text;whiteSpace=wrap;html=1;fontSize=16;fontColor=#000000;fontStyle=1" parent="1" vertex="1">
                    <mxGeometry x="-1935" y="-1230" width="380" height="30" as="geometry"/>
                </mxCell>
                <mxCell id="8_MAo4x29Dr0XR6xHiip-1" value="&lt;b&gt;&lt;font style=&quot;font-size: 20px&quot;&gt;System Security Plan:&lt;/font&gt;&lt;br&gt;&lt;/b&gt;&lt;b&gt;&lt;font style=&quot;font-size: 16px&quot;&gt;uuid: &quot;NISTDEMO-SSP1-...&quot;&lt;/font&gt;&lt;/b&gt;&lt;b&gt;&lt;span style=&quot;font-size: 16px&quot;&gt;&lt;br&gt;control-implementation:&lt;/span&gt;&lt;br&gt;&lt;/b&gt;" style="rounded=0;whiteSpace=wrap;html=1;fillColor=#C3FBFF;strokeColor=#0e8088;strokeWidth=4;fontColor=#000000;align=left;verticalAlign=top;spacing=0;opacity=50;dashed=1;spacingLeft=20;spacingTop=6;" vertex="1" parent="1">
                    <mxGeometry x="-2940" y="-1660" width="520" height="500" as="geometry"/>
                </mxCell>
                <mxCell id="8_MAo4x29Dr0XR6xHiip-2" value="&lt;span style=&quot;font-size: 16px&quot;&gt;&lt;b&gt;implemented-requirements:&lt;/b&gt;&lt;/span&gt;&lt;br&gt;&lt;b&gt;&lt;font color=&quot;#004c99&quot;&gt;&lt;span style=&quot;font-family: &amp;#34;menlo&amp;#34; , &amp;#34;monaco&amp;#34; , &amp;#34;courier new&amp;#34; , monospace&quot;&gt;&lt;font&gt;&lt;font style=&quot;font-size: 10px&quot;&gt;&lt;br&gt;&lt;/font&gt;&lt;/font&gt;&lt;/span&gt;&lt;/font&gt;&lt;/b&gt;&lt;b style=&quot;font-size: 17px&quot;&gt;&lt;font color=&quot;#004c99&quot; style=&quot;font-size: 17px&quot;&gt;&lt;span style=&quot;font-family: &amp;#34;menlo&amp;#34; , &amp;#34;monaco&amp;#34; , &amp;#34;courier new&amp;#34; , monospace&quot;&gt;&lt;font style=&quot;font-size: 17px&quot;&gt;&amp;nbsp; &amp;nbsp;control-id: enc-1&lt;/font&gt;&lt;/span&gt;&lt;/font&gt;&lt;/b&gt;&lt;b style=&quot;font-size: 17px&quot;&gt;&lt;font color=&quot;#004c99&quot; style=&quot;font-size: 17px&quot;&gt;&lt;span style=&quot;font-family: &amp;#34;menlo&amp;#34; , &amp;#34;monaco&amp;#34; , &amp;#34;courier new&amp;#34; , monospace&quot;&gt;&lt;font style=&quot;font-size: 17px&quot;&gt;&amp;nbsp;&lt;/font&gt;&lt;/span&gt;&lt;br&gt;&lt;br&gt;&lt;/font&gt;&lt;/b&gt;" style="rounded=0;whiteSpace=wrap;html=1;fillColor=#b0e3e6;strokeColor=#0E8088;strokeWidth=4;fontColor=#000000;align=left;verticalAlign=top;spacing=4;spacingLeft=16;" vertex="1" parent="1">
                    <mxGeometry x="-2920" y="-1580" width="480" height="400" as="geometry"/>
                </mxCell>
                <mxCell id="8_MAo4x29Dr0XR6xHiip-3" value="&lt;div style=&quot;line-height: 18px ; font-size: 14px&quot;&gt;&lt;span style=&quot;background-color: transparent ; font-size: 14px&quot;&gt;&lt;font style=&quot;font-size: 14px&quot;&gt;- component-uuid: BBBB-1&lt;/font&gt;&lt;/span&gt;&lt;/div&gt;&lt;div style=&quot;line-height: 18px ; font-size: 14px&quot;&gt;&lt;span style=&quot;background-color: transparent ; font-size: 14px&quot;&gt;&lt;font style=&quot;font-size: 14px&quot;&gt;- description: Storage array is encrypted with...&lt;/font&gt;&lt;/span&gt;&lt;br style=&quot;font-size: 14px&quot;&gt;&lt;/div&gt;" style="rounded=0;whiteSpace=wrap;html=1;fillColor=#FFFFFF;strokeColor=none;strokeWidth=2;fontColor=#000000;align=left;verticalAlign=top;spacing=0;fontSize=14;labelBackgroundColor=none;opacity=60;spacingLeft=5;" vertex="1" parent="1">
                    <mxGeometry x="-2865" y="-1480" width="400" height="50" as="geometry"/>
                </mxCell>
                <mxCell id="8_MAo4x29Dr0XR6xHiip-4" value="&lt;font style=&quot;font-size: 14px&quot;&gt;&lt;b style=&quot;background-color: transparent ; font-size: 14px&quot;&gt;- provided-uuid: CCCC-1&lt;br style=&quot;font-size: 14px&quot;&gt;&lt;/b&gt;&lt;span style=&quot;color: rgb(36 , 41 , 47) ; background-color: transparent ; font-size: 14px&quot;&gt;- description: Encryption is provided by the storage array.&lt;/span&gt;&lt;b style=&quot;background-color: transparent ; font-size: 14px&quot;&gt;&lt;br style=&quot;font-size: 14px&quot;&gt;&lt;/b&gt;&lt;/font&gt;&lt;div style=&quot;line-height: 18px ; font-size: 14px&quot;&gt;&lt;br style=&quot;font-size: 14px&quot;&gt;&lt;/div&gt;" style="rounded=0;whiteSpace=wrap;html=1;fillColor=#FFFFFF;strokeColor=none;strokeWidth=2;fontColor=#000000;align=left;verticalAlign=top;spacing=0;fontSize=14;labelBackgroundColor=none;opacity=60;spacingLeft=5;spacingTop=0;" vertex="1" parent="1">
                    <mxGeometry x="-2865" y="-1390" width="400" height="60" as="geometry"/>
                </mxCell>
                <mxCell id="8_MAo4x29Dr0XR6xHiip-5" value="&lt;span style=&quot;color: rgb(0 , 0 , 0) ; font-family: &amp;quot;helvetica&amp;quot; ; font-size: 16px ; font-style: normal ; letter-spacing: normal ; text-align: left ; text-indent: 0px ; text-transform: none ; word-spacing: 0px ; background-color: transparent&quot;&gt;by-component:export:responsibilities&lt;/span&gt;" style="text;whiteSpace=wrap;html=1;fontSize=16;fontColor=#000000;fontStyle=1" vertex="1" parent="1">
                    <mxGeometry x="-2865" y="-1420" width="290" height="30" as="geometry"/>
                </mxCell>
                <mxCell id="8_MAo4x29Dr0XR6xHiip-6" value="&lt;span style=&quot;color: rgb(0, 0, 0); font-family: helvetica; font-size: 16px; font-style: normal; letter-spacing: normal; text-align: left; text-indent: 0px; text-transform: none; word-spacing: 0px; background-color: transparent;&quot;&gt;by-component&lt;/span&gt;&lt;span style=&quot;color: rgb(0, 0, 0); font-family: helvetica; font-size: 16px; font-style: normal; letter-spacing: normal; text-align: left; text-indent: 0px; text-transform: none; word-spacing: 0px; background-color: transparent;&quot;&gt;:export:provided&lt;/span&gt;" style="text;whiteSpace=wrap;html=1;fontSize=16;fontColor=#000000;fontStyle=1" vertex="1" parent="1">
                    <mxGeometry x="-2865" y="-1510" width="380" height="30" as="geometry"/>
                </mxCell>
                <mxCell id="8_MAo4x29Dr0XR6xHiip-7" value="&lt;b&gt;&lt;font style=&quot;font-size: 20px&quot;&gt;Component Definition:&lt;/font&gt;&lt;br&gt;&lt;/b&gt;&lt;b&gt;&lt;font style=&quot;font-size: 16px&quot;&gt;uuid: &quot;NISTDEMO-CD01&quot;&lt;/font&gt;&lt;/b&gt;&lt;b&gt;&lt;span style=&quot;font-size: 16px&quot;&gt;&lt;br&gt;control-implementation:&lt;/span&gt;&lt;br&gt;&lt;/b&gt;" style="rounded=0;whiteSpace=wrap;html=1;fillColor=#C3FBFF;strokeColor=#0e8088;strokeWidth=4;fontColor=#000000;align=left;verticalAlign=top;spacing=0;opacity=50;dashed=1;spacingLeft=20;spacingTop=6;" vertex="1" parent="1">
                    <mxGeometry x="-1430" y="-1375" width="520" height="500" as="geometry"/>
                </mxCell>
                <mxCell id="8_MAo4x29Dr0XR6xHiip-8" value="&lt;span style=&quot;font-size: 16px&quot;&gt;&lt;b&gt;implemented-requirements:&lt;/b&gt;&lt;/span&gt;&lt;br&gt;&lt;b&gt;&lt;font color=&quot;#004c99&quot;&gt;&lt;span style=&quot;font-family: &amp;quot;menlo&amp;quot; , &amp;quot;monaco&amp;quot; , &amp;quot;courier new&amp;quot; , monospace&quot;&gt;&lt;font&gt;&lt;font style=&quot;font-size: 10px&quot;&gt;&lt;br&gt;&lt;/font&gt;&lt;/font&gt;&lt;/span&gt;&lt;/font&gt;&lt;/b&gt;&lt;b style=&quot;font-size: 17px&quot;&gt;&lt;font color=&quot;#004c99&quot; style=&quot;font-size: 17px&quot;&gt;&lt;span style=&quot;font-family: &amp;quot;menlo&amp;quot; , &amp;quot;monaco&amp;quot; , &amp;quot;courier new&amp;quot; , monospace&quot;&gt;&lt;font style=&quot;font-size: 17px&quot;&gt;&amp;nbsp; &amp;nbsp;control-id: ac-1&lt;/font&gt;&lt;/span&gt;&lt;/font&gt;&lt;/b&gt;&lt;b style=&quot;font-size: 17px&quot;&gt;&lt;font color=&quot;#004c99&quot; style=&quot;font-size: 17px&quot;&gt;&lt;span style=&quot;font-family: &amp;quot;menlo&amp;quot; , &amp;quot;monaco&amp;quot; , &amp;quot;courier new&amp;quot; , monospace&quot;&gt;&lt;font style=&quot;font-size: 17px&quot;&gt;&amp;nbsp;&lt;/font&gt;&lt;/span&gt;&lt;br&gt;&lt;br&gt;&lt;/font&gt;&lt;/b&gt;" style="rounded=0;whiteSpace=wrap;html=1;fillColor=#b0e3e6;strokeColor=#0E8088;strokeWidth=4;fontColor=#000000;align=left;verticalAlign=top;spacing=4;spacingLeft=16;" vertex="1" parent="1">
                    <mxGeometry x="-1410" y="-1295" width="480" height="400" as="geometry"/>
                </mxCell>
                <mxCell id="8_MAo4x29Dr0XR6xHiip-9" value="&lt;div style=&quot;line-height: 18px ; font-size: 14px&quot;&gt;&lt;span style=&quot;background-color: transparent ; font-size: 14px&quot;&gt;&lt;font style=&quot;font-size: 14px&quot;&gt;- component-uuid: NISTDEMO-PRO1&lt;/font&gt;&lt;/span&gt;&lt;/div&gt;&lt;div style=&quot;line-height: 18px ; font-size: 14px&quot;&gt;&lt;span style=&quot;background-color: transparent ; font-size: 14px&quot;&gt;&lt;font style=&quot;font-size: 14px&quot;&gt;- description: Storage array is encrypted with...&lt;/font&gt;&lt;/span&gt;&lt;br style=&quot;font-size: 14px&quot;&gt;&lt;/div&gt;" style="rounded=0;whiteSpace=wrap;html=1;fillColor=#FFFFFF;strokeColor=none;strokeWidth=2;fontColor=#000000;align=left;verticalAlign=top;spacing=0;fontSize=14;labelBackgroundColor=none;opacity=60;spacingLeft=5;" vertex="1" parent="1">
                    <mxGeometry x="-1355" y="-1195" width="400" height="50" as="geometry"/>
                </mxCell>
                <mxCell id="8_MAo4x29Dr0XR6xHiip-10" value="&lt;font style=&quot;font-size: 14px&quot;&gt;&lt;b style=&quot;background-color: transparent ; font-size: 14px&quot;&gt;- provided-uuid: NISTDEMO-PRO1&lt;br style=&quot;font-size: 14px&quot;&gt;&lt;/b&gt;&lt;span style=&quot;color: rgb(36 , 41 , 47) ; background-color: transparent ; font-size: 14px&quot;&gt;- description: Encryption is provided by the storage array.&lt;/span&gt;&lt;b style=&quot;background-color: transparent ; font-size: 14px&quot;&gt;&lt;br style=&quot;font-size: 14px&quot;&gt;&lt;/b&gt;&lt;/font&gt;&lt;div style=&quot;line-height: 18px ; font-size: 14px&quot;&gt;&lt;br style=&quot;font-size: 14px&quot;&gt;&lt;/div&gt;" style="rounded=0;whiteSpace=wrap;html=1;fillColor=#FFFFFF;strokeColor=none;strokeWidth=2;fontColor=#000000;align=left;verticalAlign=top;spacing=0;fontSize=14;labelBackgroundColor=none;opacity=60;spacingLeft=5;spacingTop=0;" vertex="1" parent="1">
                    <mxGeometry x="-1355" y="-1105" width="400" height="60" as="geometry"/>
                </mxCell>
                <mxCell id="8_MAo4x29Dr0XR6xHiip-11" value="&lt;span style=&quot;color: rgb(0 , 0 , 0) ; font-family: &amp;quot;helvetica&amp;quot; ; font-size: 16px ; font-style: normal ; letter-spacing: normal ; text-align: left ; text-indent: 0px ; text-transform: none ; word-spacing: 0px ; background-color: transparent&quot;&gt;shared:responsibilities&lt;/span&gt;" style="text;whiteSpace=wrap;html=1;fontSize=16;fontColor=#000000;fontStyle=1" vertex="1" parent="1">
                    <mxGeometry x="-1355" y="-1135" width="290" height="30" as="geometry"/>
                </mxCell>
                <mxCell id="8_MAo4x29Dr0XR6xHiip-12" value="&lt;span style=&quot;color: rgb(0, 0, 0); font-family: helvetica; font-size: 16px; font-style: normal; letter-spacing: normal; text-align: left; text-indent: 0px; text-transform: none; word-spacing: 0px; background-color: transparent;&quot;&gt;shared:provided&lt;/span&gt;" style="text;whiteSpace=wrap;html=1;fontSize=16;fontColor=#000000;fontStyle=1" vertex="1" parent="1">
                    <mxGeometry x="-1355" y="-1225" width="380" height="30" as="geometry"/>
                </mxCell>
            </root>
        </mxGraphModel>
    </diagram>
</mxfile>